<svg xmlns="http://www.w3.org/2000/svg" viewBox="0 0 1020 240"><defs><style>.a{fill:#50b948;}.b{opacity:0.25;}.c{fill:#fff;}.d{fill:#f2f2f2;}</style></defs><title>CorporateSales-header</title><rect class="a" x="-9" y="-45" width="1038" height="306"/><g class="b"><polygon class="c" points="970.68 62.72 970.68 37.82 838.04 -45 745.19 14.48 745.19 43.3 838.04 -9.14 970.68 62.72"/><path class="c" d="M970.68,197.66V186.92L838,152.32,746.45,176.6V164.17c11-3.41,91.47-28.42,91.57-28.4l132.66,38.79V149.65L838,103.39l-91.59,32.47V123.44L838,86.86l132.64,50.42V112.36L838,55.59,746.45,95.14V82.72C757.42,77.49,838,39,838,39S970.68,100,970.68,100V75.1L838,7.4,745.19,55.07V80.5l-23.6-9.83L687.11,90.16V212.24L665,216.15v63.92H893.6V226.63l68,12v41.44H995V202.51ZM699.47,101.57l12.37-5.66v112l-12.37,2.18Z"/></g><path class="c" d="M279.89,102.76v8.93c0,10.75-5.37,16.89-15.74,16.89s-15.74-6.14-15.74-16.89V76.75c0-10.75,5.38-16.89,15.74-16.89S279.89,66,279.89,76.75v6.53h-10v-7.2c0-4.8-2.11-6.62-5.47-6.62S259,71.27,259,76.07v36.29c0,4.8,2.11,6.53,5.47,6.53s5.47-1.73,5.47-6.53v-9.6Z"/><path class="c" d="M285.46,76.75c0-10.75,5.66-16.89,16-16.89s16,6.14,16,16.89v34.94c0,10.75-5.66,16.89-16,16.89s-16-6.14-16-16.89ZM296,112.36c0,4.8,2.11,6.62,5.47,6.62s5.47-1.82,5.47-6.62V76.07c0-4.8-2.11-6.62-5.47-6.62S296,71.27,296,76.07Z"/><path class="c" d="M346.42,127.81c-.58-1.73-1-2.78-1-8.26V109c0-6.24-2.11-8.54-6.91-8.54H334.9v27.36H324.34V60.62h15.93c10.94,0,15.65,5.09,15.65,15.46v5.28c0,6.91-2.21,11.42-6.91,13.63,5.28,2.21,7,7.3,7,14.3v10.37c0,3.26.1,5.66,1.15,8.16ZM334.9,70.22V90.86H339c3.94,0,6.33-1.73,6.33-7.1V77.13c0-4.8-1.63-6.91-5.38-6.91Z"/><path class="c" d="M394.22,77.23V86c0,10.75-5.18,16.61-15.74,16.61h-5v25.25H362.93V60.62h15.55C389,60.62,394.22,66.47,394.22,77.23Zm-20.73-7V93h5c3.36,0,5.18-1.54,5.18-6.33V76.55c0-4.8-1.82-6.33-5.18-6.33Z"/><path class="c" d="M398.74,76.75c0-10.75,5.66-16.89,16-16.89s16,6.14,16,16.89v34.94c0,10.75-5.66,16.89-16,16.89s-16-6.14-16-16.89Zm10.56,35.61c0,4.8,2.11,6.62,5.47,6.62s5.47-1.82,5.47-6.62V76.07c0-4.8-2.11-6.62-5.47-6.62s-5.47,1.82-5.47,6.62Z"/><path class="c" d="M459.69,127.81c-.58-1.73-1-2.78-1-8.26V109c0-6.24-2.11-8.54-6.91-8.54h-3.65v27.36H437.62V60.62h15.94c10.94,0,15.65,5.09,15.65,15.46v5.28c0,6.91-2.21,11.42-6.91,13.63,5.28,2.21,7,7.3,7,14.3v10.37c0,3.26.1,5.66,1.15,8.16Zm-11.52-57.6V90.86h4.13c3.94,0,6.34-1.73,6.34-7.1V77.13c0-4.8-1.63-6.91-5.38-6.91Z"/><path class="c" d="M510.38,127.81H499.72l-1.82-12.19h-13l-1.82,12.19h-9.69l10.75-67.2h15.46ZM486.29,106.5h10.17l-5.09-34Z"/><path class="c" d="M512.21,60.62h32.64v9.6h-11v57.6H523.25V70.22h-11Z"/><path class="c" d="M560,88.94h14.49v9.6H560v19.68h18.24v9.6h-28.8V60.62h28.8v9.6H560Z"/><path class="c" d="M628,76.84v1.44h-4.22V76.55c0-7.1-2.69-12.48-10-12.48s-10,5.28-10,12.38c0,16.32,24.29,16.61,24.29,35.13,0,9.7-4.22,16.8-14.5,16.8s-14.5-7.1-14.5-16.8v-3.46h4.22v3.74c0,7.2,2.78,12.38,10.18,12.38s10.17-5.18,10.17-12.38c0-16.13-24.29-16.42-24.29-35.13,0-10.08,4.42-16.61,14.3-16.7C623.85,60,628,67.15,628,76.84Z"/><path class="c" d="M641.61,112.94l-3.36,14.88h-4l14.69-67.29h6.43l15,67.29H665.9l-3.36-14.88Zm.67-3.84h19.58L652,65.61Z"/><path class="c" d="M677,127.81V60.62h4.42v63.16h21.12v4Z"/><path class="c" d="M731.94,91.72v4H713.61v28h22.08v4H709.19V60.62h26.49v4H713.61V91.72Z"/><path class="c" d="M771.21,76.84v1.44H767V76.55c0-7.1-2.69-12.48-10-12.48s-10,5.28-10,12.38c0,16.32,24.29,16.61,24.29,35.13,0,9.7-4.22,16.8-14.5,16.8s-14.5-7.1-14.5-16.8v-3.46h4.22v3.74c0,7.2,2.78,12.38,10.18,12.38s10.17-5.18,10.17-12.38c0-16.13-24.29-16.42-24.29-35.13,0-10.08,4.42-16.61,14.3-16.7C767.08,60,771.21,67.15,771.21,76.84Z"/><path class="d" d="M194.53,163.27h7.14c5,0,10.61,1.9,10.61,10.13,0,5.51-2.79,13.6-14.75,13.6h-8Zm.58,20h2.21c6.87,0,10-4,10-10.54,0-3.71-2.89-5.71-7.17-5.71h-1.63Z"/><path class="d" d="M219.08,163.27h14l-.71,3.74h-9.28l-1.22,5.85h8.29l-.75,3.74h-8.33l-1.39,6.66H229l-.82,3.74H214.08Z"/><path class="d" d="M238,163.27h7.14c5,0,10.61,1.9,10.61,10.13,0,5.51-2.79,13.6-14.75,13.6h-8Zm.58,20h2.21c6.87,0,10-4,10-10.54,0-3.71-2.89-5.71-7.17-5.71H242Z"/><path class="d" d="M262.05,163.27h5L262,187h-5Z"/><path class="d" d="M287.66,168a9.62,9.62,0,0,0-5.44-1.39c-5.27,0-9,4-9,9.55,0,4,2.58,7.51,6.77,7.51a9.52,9.52,0,0,0,5-1.46l-.75,4.56a20.37,20.37,0,0,1-5.37.65c-7.17,0-10.61-4.83-10.61-11.25,0-7.65,5.2-13.29,13.6-13.29a18.87,18.87,0,0,1,7,1.16Z"/><path class="d" d="M299.66,163.27h5.27L309.24,187h-4.76l-.82-5.44h-10.1l-3,5.44h-5.27Zm-4,14.55H303l-1.5-10.33h-.14Z"/><path class="d" d="M312.41,163.27h18.32L330,167h-6.7l-4.32,20h-5l4.32-20h-6.7Z"/><path class="d" d="M333.69,163.27h14L347,167h-9.28l-1.22,5.85h8.29L344,176.6h-8.33l-1.39,6.66h9.38l-.82,3.74H328.7Z"/><path class="d" d="M352.6,163.27h7.14c5,0,10.61,1.9,10.61,10.13,0,5.51-2.79,13.6-14.75,13.6h-8Zm.58,20h2.21c6.87,0,10-4,10-10.54,0-3.71-2.89-5.71-7.17-5.71h-1.63Z"/><path class="d" d="M398.22,167.83a11.24,11.24,0,0,0-4.93-1.22c-1.7,0-4,.68-4,2.72,0,3.81,8.09,3.57,8.09,10.16,0,5.81-4.55,7.92-9.76,7.92a20.11,20.11,0,0,1-6.77-1.33l1.22-4a14.07,14.07,0,0,0,5.81,1.63c2.28,0,4.52-1.16,4.52-3.71,0-4.28-8.09-3.6-8.09-9.93,0-5,4.28-7.17,8.84-7.17a16.53,16.53,0,0,1,6.15,1.05Z"/><path class="d" d="M412.4,163.27h5.27L422,187h-4.76l-.82-5.44h-10.1l-3,5.44H398Zm-4,14.55h7.34l-1.5-10.33h-.14Z"/><path class="d" d="M429.81,163.27h4.76l-4.25,20h9.32l-.82,3.74h-14Z"/><path class="d" d="M447,163.27h14l-.71,3.74H451l-1.22,5.85h8.29l-.75,3.74H449l-1.39,6.66H457l-.82,3.74H442Z"/><path class="d" d="M477.58,167.83a11.24,11.24,0,0,0-4.93-1.22c-1.7,0-4,.68-4,2.72,0,3.81,8.09,3.57,8.09,10.16,0,5.81-4.55,7.92-9.76,7.92a20.11,20.11,0,0,1-6.77-1.33l1.22-4a14.07,14.07,0,0,0,5.81,1.63c2.28,0,4.52-1.16,4.52-3.71,0-4.28-8.09-3.6-8.09-9.93,0-5,4.28-7.17,8.84-7.17a16.53,16.53,0,0,1,6.15,1.05Z"/><path class="d" d="M501.21,163.27h5.27L510.79,187H506l-.82-5.44h-10.1l-3,5.44h-5.27Zm-4,14.55h7.34l-1.5-10.33h-.14Z"/><path class="d" d="M518.75,163.27h6l5.07,18h.07l3.88-18h4.49L533.13,187H527l-5-18.19H522L518.21,187h-4.56Z"/><path class="d" d="M543.4,163.27h7.14c5,0,10.61,1.9,10.61,10.13,0,5.51-2.79,13.6-14.75,13.6h-8Zm.58,20h2.21c6.87,0,10-4,10-10.54,0-3.71-2.89-5.71-7.17-5.71h-1.63Z"/><path class="d" d="M589,167.83a11.24,11.24,0,0,0-4.93-1.22c-1.7,0-4,.68-4,2.72,0,3.81,8.09,3.57,8.09,10.16,0,5.81-4.56,7.92-9.76,7.92a20.11,20.11,0,0,1-6.77-1.33l1.22-4a14.07,14.07,0,0,0,5.81,1.63c2.28,0,4.52-1.16,4.52-3.71,0-4.28-8.09-3.6-8.09-9.93,0-5,4.28-7.17,8.84-7.17a16.53,16.53,0,0,1,6.15,1.05Z"/><path class="d" d="M601,163.27l-2.41,11.25c-.78,3.33-2,9.14,3.23,9.14,4.9,0,5.81-4.45,6.66-8.36l2.58-12h4.69l-3.16,14.35c-1.36,6.08-4.22,9.79-10.81,9.79-7.75,0-9.66-4.49-8.26-11.25l2.72-12.88Z"/><path class="d" d="M620.28,187h-4.76l5-23.73h4c4.39,0,10.4.24,10.4,6.15,0,5.75-4.73,8.57-10,8.57h-2.75ZM623,174.25h1.7c2.62,0,5.3-1.36,5.3-4.32,0-2.41-1.94-2.92-4-2.92h-1.5Z"/><path class="d" d="M639.18,187h-4.76l5-23.73h4c4.39,0,10.4.24,10.4,6.15,0,5.75-4.73,8.57-10,8.57h-2.75Zm2.72-12.75h1.7c2.62,0,5.3-1.36,5.3-4.32,0-2.41-1.94-2.92-4-2.92h-1.5Z"/><path class="d" d="M678.34,172.93a15.83,15.83,0,0,1-4,10.5c-2.48,2.75-6.08,4-10.06,4-5.85,0-9.35-4.22-9.35-9.86a15.83,15.83,0,0,1,3.74-10.27,12.46,12.46,0,0,1,9.76-4.42C674.88,162.86,678.34,166.6,678.34,172.93Zm-18.43,4.9c0,3.09,1.56,5.85,5,5.85,5.44,0,8.46-6.53,8.46-11.25,0-3.16-1.63-5.81-5.07-5.81C662.77,166.6,659.92,173,659.92,177.82Z"/><path class="d" d="M684.74,163.27h5.61c4.39,0,9.45-.07,9.45,5.61,0,4.08-3.06,6.25-6.94,6.32v.07a2.54,2.54,0,0,1,2.41,2.18l2.28,9.55h-5l-1.16-5.58c-.54-2.52-.41-4.28-3-4.28h-1.8L684.54,187h-4.76Zm2.72,10.13h1.73c2.55,0,5.64-.78,5.64-3.91,0-2.48-2.14-2.48-4.08-2.48h-2Z"/><path class="d" d="M702.9,163.27h18.32l-.78,3.74h-6.7l-4.32,20h-5l4.32-20h-6.7Z"/><path class="d" d="M745.26,167.83a11.24,11.24,0,0,0-4.93-1.22c-1.7,0-4,.68-4,2.72,0,3.81,8.09,3.57,8.09,10.16,0,5.81-4.56,7.92-9.76,7.92a20.11,20.11,0,0,1-6.77-1.33l1.22-4a14.07,14.07,0,0,0,5.81,1.63c2.28,0,4.52-1.16,4.52-3.71,0-4.28-8.09-3.6-8.09-9.93,0-5,4.28-7.17,8.84-7.17a16.53,16.53,0,0,1,6.15,1.05Z"/><path class="d" d="M750.16,163.27h18.32L767.7,167H761l-4.32,20h-5L756,167h-6.7Z"/><path class="d" d="M776.47,163.27h5.27L786.06,187H781.3l-.82-5.44h-10.1l-3,5.44h-5.27Zm-4,14.55h7.34l-1.5-10.33h-.14Z"/><path class="d" d="M794.12,163.27h13.09l-.82,3.74h-8.29l-1.26,5.85h7.92L804,176.6h-8L793.88,187h-4.76Z"/><path class="d" d="M811.12,163.27h13.09l-.82,3.74h-8.29l-1.26,5.85h7.92L821,176.6h-8L810.88,187h-4.76Z"/><path class="d" d="M355.94,200.23H359l.67-3.18,2.73-.95-.86,4.13h3.78l-.41,2.05h-3.81l-1.27,5.91a20.4,20.4,0,0,0-.41,2.59c0,1,.54,1.48,1.84,1.48a5,5,0,0,0,1.78-.35l-.38,2.11a9,9,0,0,1-2.48.3,3,3,0,0,1-3.29-3.05,19.86,19.86,0,0,1,.49-3.24l1.19-5.75h-3Z"/><path class="d" d="M373.57,199.91c3.7,0,6.1,2.24,6.1,6,0,4.67-2.75,8.4-7.69,8.4-3.78,0-6.26-2.05-6.26-6.13C365.71,203.61,368.52,199.91,373.57,199.91Zm-1.62,12.36c2.86,0,5-3.24,5-6.34,0-2.05-1.21-4-3.51-4-3.37,0-5,3.56-5,6.42C368.41,210.57,369.54,212.27,371.95,212.27Z"/><path class="d" d="M391.93,201.8c.11-.49.16-1,.27-1.57h2.38l-.32,1.89h.05a5.09,5.09,0,0,1,4.37-2.21,3.53,3.53,0,0,1,3.64,2.4,6,6,0,0,1,4.88-2.4A3.57,3.57,0,0,1,411,203.5a14.47,14.47,0,0,1-.41,2.89L409,214H406.5l1.83-8.72a7.21,7.21,0,0,0,.16-1.3,1.91,1.91,0,0,0-2-2c-2.56,0-4,3-4.45,5.13L400.48,214h-2.54l1.83-8.72a7.21,7.21,0,0,0,.16-1.3,1.91,1.91,0,0,0-2-2c-2.56,0-4,3-4.45,5.13L391.93,214h-2.54Z"/><path class="d" d="M424.14,213.76a17.25,17.25,0,0,1-4.08.57c-3.35,0-6.34-1.35-6.34-6.21,0-3.81,2.67-8.21,7.53-8.21,3.32,0,5.18,2,5.18,5.26a14.68,14.68,0,0,1-.24,2.51H416.5a4.71,4.71,0,0,0-.08.86c0,2.89,1.78,3.72,4.24,3.72a10.49,10.49,0,0,0,3.89-.84Zm-.32-8a7.81,7.81,0,0,0,.08-1.05A2.63,2.63,0,0,0,421,202c-2.08,0-3.67,1.81-4.21,3.83Z"/><path class="d" d="M439.15,213.76a17.24,17.24,0,0,1-4.08.57c-3.35,0-6.34-1.35-6.34-6.21,0-3.81,2.67-8.21,7.53-8.21,3.32,0,5.18,2,5.18,5.26a14.58,14.58,0,0,1-.24,2.51h-9.69a4.62,4.62,0,0,0-.08.86c0,2.89,1.78,3.72,4.24,3.72a10.48,10.48,0,0,0,3.89-.84Zm-.32-8a7.66,7.66,0,0,0,.08-1.05A2.63,2.63,0,0,0,436,202c-2.08,0-3.67,1.81-4.21,3.83Z"/><path class="d" d="M444.47,200.23h3.08l.67-3.18,2.73-.95-.86,4.13h3.78l-.41,2.05h-3.81l-1.27,5.91a20.23,20.23,0,0,0-.41,2.59c0,1,.54,1.48,1.84,1.48a5,5,0,0,0,1.78-.35l-.38,2.11a9,9,0,0,1-2.48.3,3,3,0,0,1-3.29-3.05,19.86,19.86,0,0,1,.49-3.24l1.19-5.75h-3Z"/><path class="d" d="M464.39,200.61a14.13,14.13,0,0,1,3.83-.7c2.78,0,5.45,1.08,5.45,4.37a12.06,12.06,0,0,1-.24,2.16c-.51,2.56-1.08,5.13-1.43,7.56h-2.35l.46-2.29h-.05a5.06,5.06,0,0,1-4.48,2.62c-2.32,0-4.4-1.21-4.4-3.81,0-3.91,3.54-5,8.15-5,.54,0,1.21.05,1.84.08a4.35,4.35,0,0,0,.13-.89c0-2-1.29-2.73-3.16-2.73a8.69,8.69,0,0,0-4.21,1.16Zm4.29,6.78c-1.92,0-4.8.51-4.8,3,0,1.21,1.05,1.86,2.27,1.86,2.56,0,4.18-2.56,4.48-4.89Z"/><path class="d" d="M480.89,193.76h2.54L479.14,214H476.6Z"/><path class="d" d="M488.4,193.76h2.54L486.64,214h-2.54Z"/><path class="d" d="M497.42,217.7a2.59,2.59,0,0,0,1.11.24c1.54,0,2.59-1.05,3.64-3.19L500,200.23h2.64l1.59,11h.05l6-11H513l-9.39,16.36c-1.21,2.1-2.13,3.4-4.67,3.4a9.42,9.42,0,0,1-1.92-.19Z"/><path class="d" d="M520.63,199.91c3.7,0,6.1,2.24,6.1,6,0,4.67-2.75,8.4-7.69,8.4-3.78,0-6.26-2.05-6.26-6.13C512.78,203.61,515.59,199.91,520.63,199.91ZM519,212.27c2.86,0,5-3.24,5-6.34,0-2.05-1.21-4-3.51-4-3.37,0-5,3.56-5,6.42C515.48,210.57,516.61,212.27,519,212.27Z"/><path class="d" d="M541.37,211.89c-.11.57-.27,1.3-.38,2.11h-2.37l.43-2.19H539a5.29,5.29,0,0,1-4.7,2.51c-2.67,0-4.59-1.4-4.59-4.32a13,13,0,0,1,.32-2.51l1.51-7.26h2.54l-1.7,8.23a8.78,8.78,0,0,0-.13,1.29,2.38,2.38,0,0,0,2.51,2.51c3.13,0,4.67-3.4,5-5.1l1.46-6.94h2.54Z"/><path class="d" d="M547.85,202.34c.11-.57.27-1.3.38-2.11h2.38l-.43,2.19h.05a5.29,5.29,0,0,1,4.7-2.51,3.4,3.4,0,0,1,1.16.24l-.57,2.24a3.53,3.53,0,0,0-1.08-.27c-3.13,0-4.67,3.4-5,5.1L548,214h-2.54Z"/><path class="d" d="M567.59,195.16h2.73l-4,18.84h-2.73Z"/><path class="d" d="M586.94,197.53h-5.86L577.55,214h-2.73l3.54-16.47H572.5l.51-2.37h14.44Z"/><path class="d" d="M595.88,202.34c.11-.57.27-1.3.38-2.11h2.38l-.43,2.19h.05a5.29,5.29,0,0,1,4.7-2.51c2.67,0,4.59,1.4,4.59,4.32a13.12,13.12,0,0,1-.32,2.51L605.71,214h-2.54l1.7-8.23a8.79,8.79,0,0,0,.13-1.3A2.38,2.38,0,0,0,602.5,202c-3.13,0-4.67,3.4-5,5.1L596,214h-2.54Z"/><path class="d" d="M620.72,213.76a17.24,17.24,0,0,1-4.08.57c-3.35,0-6.34-1.35-6.34-6.21,0-3.81,2.67-8.21,7.53-8.21,3.32,0,5.18,2,5.18,5.26a14.68,14.68,0,0,1-.24,2.51h-9.69a4.71,4.71,0,0,0-.08.86c0,2.89,1.78,3.72,4.24,3.72a10.49,10.49,0,0,0,3.89-.84Zm-.32-8a7.82,7.82,0,0,0,.08-1.05,2.63,2.63,0,0,0-2.92-2.78c-2.08,0-3.67,1.81-4.21,3.83Z"/><path class="d" d="M635.73,213.76a17.24,17.24,0,0,1-4.08.57c-3.35,0-6.34-1.35-6.34-6.21,0-3.81,2.67-8.21,7.53-8.21,3.32,0,5.18,2,5.18,5.26a14.68,14.68,0,0,1-.24,2.51h-9.69a4.71,4.71,0,0,0-.08.86c0,2.89,1.78,3.72,4.24,3.72a10.49,10.49,0,0,0,3.89-.84Zm-.32-8a7.82,7.82,0,0,0,.08-1.05,2.63,2.63,0,0,0-2.92-2.78c-2.08,0-3.67,1.81-4.21,3.83Z"/><path class="d" d="M652.88,209.44c-.32,1.54-.59,3-.78,4.56h-2.37c.13-.65.24-1.4.46-2.11h-.05c-.95,1.84-2.62,2.43-4.7,2.43-3.32,0-5.1-2.65-5.1-5.78,0-4.32,2.43-8.64,7.13-8.64a4.6,4.6,0,0,1,4.43,2.59h.05l1.81-8.75h2.54Zm-6.5,2.83c3.18,0,4.64-4,4.64-6.56,0-2.05-1.21-3.75-3.43-3.75-3,0-4.56,3.81-4.56,6.4C643,210.54,644.05,212.27,646.37,212.27Z"/><path class="d" d="M665.3,202.66a6.79,6.79,0,0,0-2.75-.7c-1.11,0-2.56.3-2.56,1.67,0,2.35,4.7,2.46,4.7,6.29,0,3.32-3.05,4.4-5.21,4.4a10.1,10.1,0,0,1-4-.65l.49-2.19a8.5,8.5,0,0,0,3.16.78c1.38,0,2.89-.57,2.89-2.13,0-2.35-4.7-2.7-4.7-6.18,0-2.92,2.92-4,5.18-4a9.72,9.72,0,0,1,3.59.76Z"/><path class="c" d="M504.71,25.28h-5.33l7.09,19.47a3,3,0,0,1-3.13,3.31,7.12,7.12,0,0,1-2.48-.32l-.32,3.56a12.31,12.31,0,0,0,3.42.5c5,0,6.16-4,7.7-8.13l6.95-18.39h-4.9l-4.46,13.54h-.07ZM487.57,43.81h4.82V37c0-2.66,0-7.56,3.92-7.56a4.91,4.91,0,0,1,2.16.4V25a5.25,5.25,0,0,0-1.48-.14c-2.88,0-4.86,2.92-5.08,4.64h-.07V25.28h-4.28ZM469.32,34.1c0-2.77,1.51-5.51,4.64-5.51s4.68,2.66,4.68,5.51c0,3.1-1,6.41-4.68,6.41S469.32,37.16,469.32,34.1Zm-5,.58c0,5.33,3.56,9.57,9.68,9.57s9.72-4.25,9.72-9.57c0-6.12-4.21-9.83-9.72-9.83S464.28,28.55,464.28,34.67Zm-30.89,9.14h4.82v-9c0-2.41.4-6.23,3.6-6.23,2.77,0,2.77,2.45,2.77,4.18V43.81h4.82v-9c0-2.41.4-6.23,3.6-6.23,2.77,0,2.77,2.45,2.77,4.18V43.81h4.82V32.12c0-4.14-1.3-7.27-5.87-7.27a6.36,6.36,0,0,0-5.79,3.28c-1-2.3-2.88-3.28-5.47-3.28a6.53,6.53,0,0,0-5.51,3h-.07V25.28h-4.5Zm-5.08-5a12.51,12.51,0,0,1-6.15,1.87c-3,0-5.08-1.69-5.29-4.68h12.81c0-6.48-1.94-11.19-8.82-11.19-5.76,0-8.6,4.43-8.6,9.79,0,6.08,3.56,9.61,9.68,9.61a12.73,12.73,0,0,0,6.37-1.48Zm-11.45-6.12c.22-2.48,1.58-4.36,4.28-4.36s3.78,2,3.92,4.36Zm-35.5,11.09h4.82v-9c0-2.41.4-6.23,3.6-6.23,2.77,0,2.77,2.45,2.77,4.18V43.81h4.82v-9c0-2.41.4-6.23,3.6-6.23,2.77,0,2.77,2.45,2.77,4.18V43.81h4.82V32.12c0-4.14-1.3-7.27-5.87-7.27a6.36,6.36,0,0,0-5.79,3.28c-1-2.3-2.88-3.28-5.47-3.28a6.53,6.53,0,0,0-5.51,3h-.07V25.28h-4.5Z"/><path class="c" d="M641,26a13,13,0,0,0-4.79-1c-3,0-6.91,1.51-6.91,5.4,0,4.64,6.26,5.11,6.26,8.24,0,2.09-2,2.84-3.85,2.84a11.33,11.33,0,0,1-4.21-1l-.65,2.92a13.48,13.48,0,0,0,5.36.86c2.88,0,6.95-1.44,6.95-5.87,0-5.11-6.26-5.25-6.26-8.39,0-1.84,1.94-2.23,3.42-2.23a9.06,9.06,0,0,1,3.67.94Zm-14,0a13,13,0,0,0-4.79-1c-3,0-6.91,1.51-6.91,5.4,0,4.64,6.26,5.11,6.26,8.24,0,2.09-2,2.84-3.85,2.84a11.33,11.33,0,0,1-4.21-1l-.65,2.92a13.48,13.48,0,0,0,5.36.86c2.88,0,6.95-1.44,6.95-5.87,0-5.11-6.26-5.25-6.26-8.39,0-1.84,1.94-2.23,3.42-2.23a9.06,9.06,0,0,1,3.67.94ZM609.14,40.39A14,14,0,0,1,604,41.51c-3.28,0-5.65-1.12-5.65-5a6.21,6.21,0,0,1,.11-1.15h12.92a19.49,19.49,0,0,0,.32-3.35c0-4.36-2.48-7-6.91-7-6.48,0-10,5.87-10,10.94,0,6.48,4,8.28,8.46,8.28a23,23,0,0,0,5.44-.76Zm-10.37-7.52c.72-2.7,2.84-5.11,5.62-5.11,2.56,0,3.89,1.55,3.89,3.71a10.33,10.33,0,0,1-.11,1.4Zm-18.5,10.94h3.38l1.91-9c.47-2.27,2.52-6.8,6.7-6.8a4.73,4.73,0,0,1,1.44.36l.76-3a4.53,4.53,0,0,0-1.55-.32,7.06,7.06,0,0,0-6.26,3.35h-.07l.58-2.92H584c-.14,1.08-.36,2.05-.5,2.81ZM563,36.69c0-4.54,2.63-8.93,6.59-8.93,2.34,0,4.1,1.44,4.1,4.54,0,4.57-2.27,9.21-6.12,9.21C564.5,41.51,563,39.17,563,36.69Zm-6.59,14.69h3.38L562,41.08h.07c.86,2.09,2.77,3.17,6,3.17,6.12,0,9.25-5.51,9.25-12.24,0-4-2.41-7-6.55-7-2.56,0-5.18.94-6.51,3.24h-.07l.61-2.81h-3.17c-.25,2-.61,4-1,6.08ZM537.5,43.81h4.21l6.12-7.2,3.17,7.2h3.82l-4.46-9.54,7.81-8.82h-4.1l-5.51,6.62-2.74-6.62h-3.71L546,34.13Zm-2.38-3.42a14,14,0,0,1-5.18,1.12c-3.28,0-5.65-1.12-5.65-5a6.21,6.21,0,0,1,.11-1.15h12.92a19.49,19.49,0,0,0,.32-3.35c0-4.36-2.48-7-6.91-7-6.48,0-10,5.87-10,10.94,0,6.48,4,8.28,8.46,8.28a23,23,0,0,0,5.44-.76Zm-10.37-7.52c.72-2.7,2.84-5.11,5.62-5.11,2.56,0,3.89,1.55,3.89,3.71a10.33,10.33,0,0,1-.11,1.4Z"/></svg>