<svg xmlns="http://www.w3.org/2000/svg" viewBox="0 0 1020 240"><defs><style>.cls-1{fill:#50b948;}.cls-2{opacity:0.25;}.cls-3{fill:#fff;}.cls-4{fill:#f2f2f2;}</style></defs><title>StoreLocation-header</title><g id="Layer_1" data-name="Layer 1"><rect class="cls-1" x="-9" y="-45" width="1038" height="306"/></g><g id="Store_Location" data-name="Store Location"><g class="cls-2"><path class="cls-3" d="M997.72,243.4,975.4,66a12.36,12.36,0,0,0-15.74-10.32l-77.9,22.73c9.37-18.34,16.15-36,16.15-48.73,0-41.24-31.86-74.66-71.15-74.66s-71.15,33.42-71.15,74.66c0,9.2,3.56,21,9.07,33.77l-70,19.88a12.39,12.39,0,0,0-8.89,10.36L663.42,271.09A12.37,12.37,0,0,0,675.69,285a12.2,12.2,0,0,0,3.38-.47l81.87-23.24L865.58,284.7a12.34,12.34,0,0,0,5.54,0L988.29,257A12.37,12.37,0,0,0,997.72,243.4ZM896.92,99.74l55.75-16.27L959,133.91l-63.33,29.24ZM826.76-10.83A37.66,37.66,0,1,1,789.1,26.82,37.66,37.66,0,0,1,826.76-10.83ZM709.26,104.88l17.1-4.85c5.42,7,17.27,20.26,43.39,47.28l5,15.24-.51-.1a12.43,12.43,0,0,0-6.83.59l-68.83,26.38Zm54,131.58a12.53,12.53,0,0,0-6.08.18l-66.9,19,4.82-38.37L773,187.41l10.74,2.12,18.41,55.63Zm118.2,20.34-13.28,3.14-52-11.63-18.54-56,61.85,12.21a12.37,12.37,0,0,0,7.58-.91l15.56-7.18Zm1.72-87.89-22.83,10.54L788.74,165.3l-7.69-23.22a6.13,6.13,0,0,0-1.43-2.35c-15.39-15.92-31.89-33.56-40.36-43.37L775.77,86c21,38.8,51,78,51,78s20-26.12,38.73-56.82a12.37,12.37,0,0,0,6.25-.1l12.73-3.72Zm10.71,85,1.23-63.23,67.11-31,9.54,75.8Z"/></g><path class="cls-3" d="M277.78,59.85c10.27,0,15.55,6.15,15.55,16.9v2.11h-10V76.07c0-4.8-1.92-6.62-5.28-6.62s-5.28,1.82-5.28,6.62c0,13.83,20.64,16.42,20.64,35.62,0,10.75-5.38,16.89-15.75,16.89s-15.74-6.14-15.74-16.89v-4.13h10v4.8c0,4.8,2.12,6.53,5.48,6.53s5.47-1.73,5.47-6.53c0-13.82-20.64-16.42-20.64-35.61C262.23,66,267.51,59.85,277.78,59.85Z"/><path class="cls-3" d="M296.4,60.62H329v9.6H318v57.59H307.44V70.22h-11Z"/><path class="cls-3" d="M332.79,76.75c0-10.75,5.66-16.9,16-16.9s16,6.15,16,16.9v34.94c0,10.75-5.66,16.89-16,16.89s-16-6.14-16-16.89Zm10.56,35.61c0,4.8,2.11,6.62,5.47,6.62s5.47-1.82,5.47-6.62V76.07c0-4.8-2.11-6.62-5.47-6.62s-5.47,1.82-5.47,6.62Z"/><path class="cls-3" d="M393.74,127.81c-.57-1.72-.95-2.78-.95-8.25V109c0-6.24-2.12-8.54-6.92-8.54h-3.64v27.35H371.67V60.62H387.6c10.94,0,15.65,5.09,15.65,15.45v5.28c0,6.92-2.21,11.43-6.91,13.63,5.28,2.21,7,7.3,7,14.31v10.37c0,3.26.1,5.66,1.16,8.15ZM382.23,70.22V90.86h4.12c3.94,0,6.34-1.73,6.34-7.11V77.13c0-4.8-1.63-6.91-5.38-6.91Z"/><path class="cls-3" d="M420.82,88.94h14.49v9.6H420.82v19.67h18.24v9.6h-28.8V60.62h28.8v9.6H420.82Z"/><path class="cls-3" d="M460.46,127.81V60.62h4.42v63.16H486v4Z"/><path class="cls-3" d="M492.34,77c0-9.79,4.51-17,14.68-17,10.37,0,14.88,7.2,14.88,17V111.4c0,9.79-4.51,17-14.88,17-10.17,0-14.68-7.2-14.68-17Zm4.41,34.66c0,7.29,2.88,12.67,10.27,12.67s10.47-5.38,10.47-12.67V76.75c0-7.3-3-12.67-10.47-12.67s-10.27,5.37-10.27,12.67Z"/><path class="cls-3" d="M557.9,77V82.6h-4.22V76.75c0-7.2-2.79-12.67-10.18-12.67s-10.17,5.47-10.17,12.67v34.94c0,7.2,2.78,12.57,10.17,12.57s10.18-5.37,10.18-12.57v-8h4.22v7.68c0,9.69-4.22,17-14.49,17s-14.5-7.3-14.5-17V77c0-9.69,4.23-17,14.5-17S557.9,67.34,557.9,77Z"/><path class="cls-3" d="M571.54,112.94l-3.37,14.87h-4l14.69-67.29h6.43l15,67.29h-4.42l-3.36-14.87Zm.67-3.84h19.58L581.9,65.61Z"/><path class="cls-3" d="M618.57,127.81V64.65H604.85v-4h31.77v4H623v63.16Z"/><path class="cls-3" d="M646.8,60.62v67.19h-4.42V60.62Z"/><path class="cls-3" d="M654.19,77c0-9.79,4.51-17,14.69-17,10.36,0,14.87,7.2,14.87,17V111.4c0,9.79-4.51,17-14.87,17-10.18,0-14.69-7.2-14.69-17Zm4.41,34.66c0,7.29,2.88,12.67,10.28,12.67s10.46-5.38,10.46-12.67V76.75c0-7.3-3-12.67-10.46-12.67S658.6,69.45,658.6,76.75Z"/><path class="cls-3" d="M695.08,127.81h-4V60.62h5.76L717,117.35V60.62h4v67.19h-4.89l-21-59.89Z"/><path class="cls-3" d="M756.91,76.84v1.44h-4.23V76.55c0-7.1-2.69-12.47-10-12.47s-10,5.27-10,12.38c0,16.32,24.28,16.61,24.28,35.13,0,9.7-4.22,16.8-14.49,16.8s-14.5-7.1-14.5-16.8v-3.45h4.23v3.74c0,7.2,2.78,12.38,10.17,12.38s10.18-5.18,10.18-12.38c0-16.13-24.29-16.42-24.29-35.13,0-10.08,4.42-16.61,14.3-16.71C752.78,60,756.91,67.15,756.91,76.84Z"/><path class="cls-4" d="M175.41,172.1a16.75,16.75,0,0,1-4.21,11.12c-2.62,2.92-6.44,4.21-10.65,4.21-6.19,0-9.9-4.46-9.9-10.44a16.75,16.75,0,0,1,4-10.87,13.19,13.19,0,0,1,10.33-4.68C171.74,161.44,175.41,165.4,175.41,172.1Zm-19.5,5.18c0,3.28,1.65,6.19,5.29,6.19,5.76,0,9-6.91,9-11.91,0-3.35-1.73-6.16-5.36-6.16C158.93,165.4,155.91,172.21,155.91,177.28Z"/><path class="cls-4" d="M182.47,161.88h6.37L194.21,181h.07l4.1-19.07h4.75L197.7,187h-6.48L186,167.74h-.07l-4,19.26h-4.83Z"/><path class="cls-4" d="M208.32,161.88h5L208.86,183h9.86l-.86,4H203Z"/><path class="cls-4" d="M226.07,161.88h5.25L226,187h-5.25Z"/><path class="cls-4" d="M236.47,161.88h6.37L248.21,181h.07l4.1-19.07h4.75L251.7,187h-6.48L240,167.74h-.07l-4,19.26h-4.83Z"/><path class="cls-4" d="M262.57,161.88h14.8l-.76,4h-9.83l-1.29,6.2h8.78l-.79,4h-8.82l-1.48,7h9.94l-.87,4h-15Z"/><path class="cls-4" d="M313.44,172.1a16.75,16.75,0,0,1-4.21,11.12c-2.63,2.92-6.45,4.21-10.66,4.21-6.19,0-9.9-4.46-9.9-10.44a16.81,16.81,0,0,1,4-10.87A13.2,13.2,0,0,1,303,161.44C309.77,161.44,313.44,165.4,313.44,172.1Zm-19.51,5.18c0,3.28,1.65,6.19,5.29,6.19,5.76,0,9-6.91,9-11.91,0-3.35-1.72-6.16-5.36-6.16C297,165.4,293.93,172.21,293.93,177.28Z"/><path class="cls-4" d="M320.21,161.88h5.94c4.64,0,10-.08,10,5.93,0,4.32-3.24,6.63-7.34,6.7v.07a2.7,2.7,0,0,1,2.56,2.31L333.78,187h-5.29l-1.23-5.9c-.57-2.67-.43-4.54-3.16-4.54h-1.91L320,187h-5Zm2.88,10.72h1.83c2.7,0,6-.83,6-4.14,0-2.63-2.27-2.63-4.32-2.63h-2.09Z"/><path class="cls-4" d="M342.6,161.88h7.56c5.25,0,11.23,2,11.23,10.72,0,5.83-2.95,14.4-15.62,14.4h-8.46Zm.61,21.16h2.34c7.27,0,10.58-4.25,10.58-11.16,0-3.92-3.06-6-7.59-6h-1.73Z"/><path class="cls-4" d="M368.59,161.88h14.79l-.75,4H372.8l-1.29,6.2h8.78l-.79,4h-8.82l-1.48,7h9.94l-.87,4h-15Z"/><path class="cls-4" d="M388.21,161.88h5.94c4.64,0,10-.08,10,5.93,0,4.32-3.24,6.63-7.35,6.7v.07a2.69,2.69,0,0,1,2.56,2.31L401.78,187h-5.29l-1.22-5.9c-.58-2.67-.44-4.54-3.17-4.54h-1.91L388,187h-5Zm2.88,10.72h1.84c2.7,0,6-.83,6-4.14,0-2.63-2.27-2.63-4.32-2.63H392.5Z"/><path class="cls-4" d="M432.92,166.7a11.81,11.81,0,0,0-5.22-1.3c-1.8,0-4.21.72-4.21,2.88,0,4,8.57,3.78,8.57,10.76,0,6.16-4.83,8.39-10.33,8.39a21.25,21.25,0,0,1-7.17-1.4l1.3-4.28a15,15,0,0,0,6.15,1.72c2.42,0,4.79-1.22,4.79-3.92,0-4.54-8.56-3.82-8.56-10.51,0-5.29,4.53-7.6,9.35-7.6a17.45,17.45,0,0,1,6.52,1.12Z"/><path class="cls-4" d="M445.56,161.88,443,173.79c-.83,3.53-2.16,9.68,3.42,9.68,5.19,0,6.16-4.71,7.06-8.85l2.73-12.74h5l-3.35,15.19c-1.44,6.44-4.46,10.36-11.44,10.36-8.21,0-10.23-4.75-8.75-11.91l2.88-13.64Z"/><path class="cls-4" d="M466,187h-5l5.32-25.12h4.25c4.65,0,11,.25,11,6.51,0,6.08-5,9.07-10.62,9.07H468Zm2.88-13.5h1.8c2.77,0,5.61-1.44,5.61-4.57,0-2.55-2.05-3.1-4.21-3.1h-1.58Z"/><path class="cls-4" d="M486,187h-5l5.33-25.12h4.25c4.64,0,11,.25,11,6.51,0,6.08-5,9.07-10.62,9.07H488Zm2.88-13.5h1.8c2.77,0,5.62-1.44,5.62-4.57,0-2.55-2.05-3.1-4.21-3.1h-1.59Z"/><path class="cls-4" d="M527.49,172.1a16.75,16.75,0,0,1-4.21,11.12c-2.63,2.92-6.44,4.21-10.65,4.21-6.2,0-9.9-4.46-9.9-10.44a16.75,16.75,0,0,1,4-10.87A13.17,13.17,0,0,1,517,161.44C523.82,161.44,527.49,165.4,527.49,172.1ZM508,177.28c0,3.28,1.66,6.19,5.29,6.19,5.76,0,9-6.91,9-11.91,0-3.35-1.73-6.16-5.37-6.16C511,165.4,508,172.21,508,177.28Z"/><path class="cls-4" d="M534.26,161.88h5.94c4.64,0,10-.08,10,5.93,0,4.32-3.24,6.63-7.34,6.7v.07a2.69,2.69,0,0,1,2.55,2.31L547.83,187h-5.29l-1.22-5.9c-.58-2.67-.43-4.54-3.17-4.54h-1.91L534.05,187h-5Zm2.88,10.72H539c2.7,0,6-.83,6-4.14,0-2.63-2.26-2.63-4.32-2.63h-2.08Z"/><path class="cls-4" d="M553.49,161.88h19.4l-.83,4H565L560.4,187h-5.26l4.57-21.17h-7.09Z"/><path class="cls-4" d="M586.46,182l-1,5h-5l1-5Zm2.81-13.5-1,5h-5l1-5Z"/><path class="cls-4" d="M604.1,167.38l8.43-5.5h4.57L611.66,187h-5l4.29-19.4-4.61,3.2Z"/><path class="cls-4" d="M622.61,175.34h9.46l-.82,4h-9.47Z"/><path class="cls-4" d="M641,173.43a5.7,5.7,0,0,1-3-4.75c0-5,4.22-7.24,8.9-7.24,3.42,0,7.66,1.59,7.66,5.65a6.49,6.49,0,0,1-5.32,6.7,6.24,6.24,0,0,1,3.38,5.43c0,5.55-4,8.21-9.58,8.21-4.14,0-8.17-2.41-8.17-6.62C634.88,176.81,637.26,174.55,641,173.43Zm3.78,2.2c-2.16.79-4.83,2.19-4.83,4.67,0,2.24,1.62,3.39,3.67,3.39a3.86,3.86,0,0,0,4-3.89C647.59,177.71,646.22,176.78,644.75,175.63Zm1.83-10.44c-1.91,0-4,1.26-4,3.38,0,1.48,1.84,2.88,3,3.56,2.09-.79,4.35-1.76,4.35-4.24C650,166,648.17,165.19,646.58,165.19Z"/><path class="cls-4" d="M655.69,178.54c0-8.13,3.89-17.1,13.14-17.1a16.86,16.86,0,0,1,5.79,1.05l-1.26,3.67a11.18,11.18,0,0,0-4.21-.76c-4.07,0-6.37,3-7.48,6.55h.07a6.61,6.61,0,0,1,3.92-1.18c4.28,0,6.8,2.66,6.8,6.87,0,5.58-3.34,9.79-9.07,9.79C657.85,187.43,655.69,183.69,655.69,178.54Zm8.82-4c-2.81,0-4,3-4,5.36,0,1.91,1,3.82,2.85,3.82,2.95,0,4.06-3.31,4.06-5.83C667.42,176,666.63,174.51,664.51,174.51Z"/><path class="cls-4" d="M675.71,178.54c0-8.13,3.88-17.1,13.14-17.1a16.91,16.91,0,0,1,5.79,1.05l-1.26,3.67a11.18,11.18,0,0,0-4.21-.76c-4.07,0-6.37,3-7.49,6.55h.07a6.66,6.66,0,0,1,3.93-1.18c4.28,0,6.8,2.66,6.8,6.87,0,5.58-3.35,9.79-9.07,9.79C677.87,187.43,675.71,183.69,675.71,178.54Zm8.82-4c-2.81,0-4,3-4,5.36,0,1.91,1,3.82,2.84,3.82,3,0,4.07-3.31,4.07-5.83C687.44,176,686.65,174.51,684.53,174.51Z"/><path class="cls-4" d="M696.66,175.34h9.47l-.83,4h-9.47Z"/><path class="cls-4" d="M727.44,170.33c0,8.14-3.89,17.1-13.14,17.1a17.17,17.17,0,0,1-5.8-1l1.26-3.67a11.17,11.17,0,0,0,4.21.75c4.07,0,6.38-3,7.49-6.55h-.07a6.57,6.57,0,0,1-3.92,1.19c-4.29,0-6.81-2.66-6.81-6.88,0-5.58,3.35-9.79,9.07-9.79C725.28,161.44,727.44,165.19,727.44,170.33Zm-7.67-5.14c-2.95,0-4.07,3.31-4.07,5.83,0,1.87.79,3.35,2.92,3.35,2.8,0,4-3,4-5.37C722.61,167.09,721.64,165.19,719.77,165.19Z"/><path class="cls-4" d="M743.92,187H727.4l.79-4.14c4.5-4.14,13.54-9.83,13.54-13.93A3.47,3.47,0,0,0,738,165.4a10.51,10.51,0,0,0-5.8,2.16l-.1-4.5a19.35,19.35,0,0,1,6.76-1.62c4.32,0,8.17,2.06,8.17,6.81,0,6.12-7.81,11.48-12.09,14.72V183h9.79Z"/><path class="cls-4" d="M763.94,187H747.42l.79-4.14c4.5-4.14,13.53-9.83,13.53-13.93A3.47,3.47,0,0,0,758,165.4a10.48,10.48,0,0,0-5.79,2.16l-.11-4.5a19.4,19.4,0,0,1,6.77-1.62c4.32,0,8.17,2.06,8.17,6.81,0,6.12-7.81,11.48-12.09,14.72V183h9.79Z"/><path class="cls-4" d="M770.71,175.34h9.47l-.83,4h-9.47Z"/><path class="cls-4" d="M783.78,178.54c0-8.13,3.89-17.1,13.14-17.1a16.86,16.86,0,0,1,5.79,1.05l-1.26,3.67a11.18,11.18,0,0,0-4.21-.76c-4.07,0-6.37,3-7.49,6.55h.08a6.61,6.61,0,0,1,3.92-1.18c4.28,0,6.8,2.66,6.8,6.87,0,5.58-3.34,9.79-9.07,9.79C785.94,187.43,783.78,183.69,783.78,178.54Zm8.82-4c-2.81,0-4,3-4,5.36,0,1.91,1,3.82,2.85,3.82,2.95,0,4.06-3.31,4.06-5.83C795.51,176,794.72,174.51,792.6,174.51Z"/><path class="cls-4" d="M802.93,182.14a12.79,12.79,0,0,0,6.08,1.33c2.41,0,5.4-1.11,5.4-4.14,0-3.34-4.6-3.34-7-3.34l.68-4c3.06,0,8.06,0,8.06-4.11,0-1.87-1.76-2.52-3.81-2.52a13.08,13.08,0,0,0-5.51,1.33l.51-4.21a22,22,0,0,1,6.29-1.08c3.86,0,7.78,1.69,7.78,6,0,3.68-2.56,5.66-5.9,6.38v.1c2.59.94,4.21,2.38,4.21,5.26,0,5.72-5.08,8.24-10.26,8.24A17.34,17.34,0,0,1,802,186Z"/><path class="cls-4" d="M823.81,178.54c0-8.13,3.89-17.1,13.14-17.1a16.86,16.86,0,0,1,5.79,1.05l-1.26,3.67a11.18,11.18,0,0,0-4.21-.76c-4.07,0-6.37,3-7.48,6.55h.07a6.61,6.61,0,0,1,3.92-1.18c4.28,0,6.8,2.66,6.8,6.87,0,5.58-3.34,9.79-9.07,9.79C826,187.43,823.81,183.69,823.81,178.54Zm8.82-4c-2.81,0-4,3-4,5.36,0,1.91,1,3.82,2.85,3.82,2.95,0,4.06-3.31,4.06-5.83C835.54,176,834.75,174.51,832.63,174.51Z"/><path class="cls-4" d="M861.54,170.33c0,8.14-3.89,17.1-13.14,17.1a17.17,17.17,0,0,1-5.8-1l1.26-3.67a11.17,11.17,0,0,0,4.21.75c4.07,0,6.38-3,7.49-6.55h-.07a6.59,6.59,0,0,1-3.92,1.19c-4.29,0-6.81-2.66-6.81-6.88,0-5.58,3.35-9.79,9.07-9.79C859.38,161.44,861.54,165.19,861.54,170.33Zm-7.67-5.14c-3,0-4.07,3.31-4.07,5.83,0,1.87.79,3.35,2.92,3.35,2.8,0,4-3,4-5.37C856.71,167.09,855.74,165.19,853.87,165.19Z"/><path class="cls-4" d="M301.65,195.16h4.05l2.57,15.41,9.18-15.41h4.42l-4,18.84h-2.7l3.46-16.14h-.06L308.86,214h-2.62l-2.61-16.14h-.06L300,214h-2.61Z"/><path class="cls-4" d="M330.81,199.91c3.7,0,6.1,2.24,6.1,6,0,4.67-2.75,8.39-7.69,8.39-3.78,0-6.26-2-6.26-6.12C323,203.61,325.77,199.91,330.81,199.91Zm-1.62,12.36c2.86,0,5-3.24,5-6.34,0-2.05-1.21-4-3.5-4-3.38,0-5,3.56-5,6.43C325.66,210.57,326.79,212.27,329.19,212.27Z"/><path class="cls-4" d="M341.53,202.34c.11-.57.27-1.3.38-2.11h2.38l-.43,2.19h.05a5.28,5.28,0,0,1,4.7-2.51c2.67,0,4.58,1.4,4.58,4.32a13.16,13.16,0,0,1-.32,2.51L351.36,214h-2.54l1.7-8.23a9.06,9.06,0,0,0,.14-1.3,2.38,2.38,0,0,0-2.51-2.51c-3.13,0-4.67,3.4-5,5.1L341.67,214h-2.54Z"/><path class="cls-4" d="M363.57,205.71h7.1l-.41,2h-7.13Z"/><path class="cls-4" d="M383.81,195.16h9.88l-.45,2.37H386L384.84,203h6.64l-.51,2.38h-6.64L382.46,214h-2.75Z"/><path class="cls-4" d="M395.53,202.34c.11-.57.27-1.3.38-2.11h2.38l-.44,2.19h.06a5.28,5.28,0,0,1,4.7-2.51,3.37,3.37,0,0,1,1.16.24l-.57,2.24a3.53,3.53,0,0,0-1.08-.27c-3.13,0-4.67,3.4-5,5.1L395.67,214h-2.54Z"/><path class="cls-4" d="M406.71,200.23h2.54L406.33,214H403.8Zm3.37-3.07h-2.86l.6-2.87h2.86Z"/><path class="cls-4" d="M419.24,211h3l-.62,3h-3Zm4.62-7.72h-3l.62-3h3Z"/><path class="cls-4" d="M441.24,198.26l-3.34,2.32-1.25-2,5.56-3.43h2.41L440.57,214h-2.7Z"/><path class="cls-4" d="M457.52,194.83c3.62,0,5.11,2.57,5.11,6.11,0,3.86-1.57,13.38-8.62,13.38-3.67,0-5-2.88-5-6.15C449,203.07,451.42,194.83,457.52,194.83Zm-3.26,17.28c4.24,0,5.67-8.53,5.67-11.34,0-1.48-.3-3.72-2.7-3.72-4.11,0-5.54,8.2-5.54,11.28C451.69,210,452.18,212.11,454.26,212.11Z"/><path class="cls-4" d="M464.28,211h3l-.62,3h-3Zm4.61-7.72h-3l.62-3h3Z"/><path class="cls-4" d="M480,194.83c3.62,0,5.1,2.57,5.1,6.11,0,3.86-1.56,13.38-8.61,13.38-3.67,0-5-2.88-5-6.15C471.51,203.07,473.94,194.83,480,194.83Zm-3.26,17.28c4.23,0,5.66-8.53,5.66-11.34,0-1.48-.29-3.72-2.7-3.72-4.1,0-5.53,8.2-5.53,11.28C474.21,210,474.7,212.11,476.78,212.11Z"/><path class="cls-4" d="M495.05,194.83c3.62,0,5.1,2.57,5.1,6.11,0,3.86-1.56,13.38-8.61,13.38-3.67,0-5-2.88-5-6.15C486.52,203.07,489,194.83,495.05,194.83Zm-3.26,17.28c4.24,0,5.67-8.53,5.67-11.34,0-1.48-.3-3.72-2.7-3.72-4.11,0-5.54,8.2-5.54,11.28C489.22,210,489.71,212.11,491.79,212.11Z"/><path class="cls-4" d="M511.66,195.16h2.67L518.49,214h-2.78l-1-4.75h-9.26l-3,4.75h-3Zm.86,2.91-5.69,9h7.47Z"/><path class="cls-4" d="M525.21,195.16h4l2.57,15.41L541,195.16h4.43l-4,18.84h-2.7l3.46-16.14h-.06L532.42,214H529.8l-2.62-16.14h0L523.51,214h-2.62Z"/><path class="cls-4" d="M554.13,205.71h7.1l-.4,2H553.7Z"/><path class="cls-4" d="M574.49,195.16h10.12l-.46,2.21h-7.64l-1.13,4.92a13.15,13.15,0,0,1,1.54-.14c3.32,0,5.64,1.62,5.64,5.13,0,4.75-3.54,7-8,7a16.33,16.33,0,0,1-4.29-.59l.46-2.4a10.66,10.66,0,0,0,3.67.78c2.92,0,5.51-1.46,5.51-4.59,0-2.32-2-3.16-4.13-3.16a11.74,11.74,0,0,0-3.48.57Z"/><path class="cls-4" d="M585.8,211h3l-.62,3h-3Zm4.62-7.72h-3l.62-3h3Z"/><path class="cls-4" d="M601.57,194.83c3.61,0,5.1,2.57,5.1,6.11,0,3.86-1.57,13.38-8.61,13.38-3.67,0-5-2.88-5-6.15C593,203.07,595.47,194.83,601.57,194.83Zm-3.27,17.28c4.24,0,5.67-8.53,5.67-11.34,0-1.48-.3-3.72-2.7-3.72-4.1,0-5.53,8.2-5.53,11.28C595.74,210,596.22,212.11,598.3,212.11Z"/><path class="cls-4" d="M616.58,194.83c3.62,0,5.1,2.57,5.1,6.11,0,3.86-1.56,13.38-8.61,13.38-3.67,0-5-2.88-5-6.15C608.05,203.07,610.48,194.83,616.58,194.83Zm-3.27,17.28c4.24,0,5.67-8.53,5.67-11.34,0-1.48-.29-3.72-2.7-3.72-4.1,0-5.53,8.2-5.53,11.28C610.75,210,611.24,212.11,613.31,212.11Z"/><path class="cls-4" d="M626.92,195.16h4.7c2.81,0,6,1.16,6,4.91s-2.73,6.4-7.81,6.4h-2.7L625.52,214h-2.7Zm.78,8.93h1.43c2.79,0,5.67-.56,5.67-3.61,0-2.62-2-2.95-4.26-2.95h-1.41Z"/><path class="cls-4" d="M642.26,195.16h4l2.56,15.41,9.18-15.41h4.42l-4,18.84h-2.7l3.46-16.14h-.06L649.46,214h-2.61l-2.62-16.14h-.06L640.56,214h-2.62Z"/><path class="cls-4" d="M675.25,195.16h4l2.56,15.41L691,195.16h4.43l-4,18.84h-2.7l3.45-16.14h-.05L682.46,214h-2.62l-2.62-16.14h-.05L673.55,214h-2.62Z"/><path class="cls-4" d="M708.24,198.13a6.41,6.41,0,0,0-3.43-.92c-1.78,0-3.72.7-3.72,2.94,0,3.16,6.42,3.19,6.42,8.13,0,2.83-2,6-6.5,6a13.33,13.33,0,0,1-5.26-1.08l.86-2.48a7.94,7.94,0,0,0,4,1.19c2.86,0,4.07-1.78,4.07-3.35,0-3.83-6.42-3.16-6.42-8.39,0-3.43,3.13-5.38,6.23-5.38a11.71,11.71,0,0,1,4.54.9Z"/><path class="cls-4" d="M725.71,197.53h-5.86L716.32,214h-2.73l3.54-16.47h-5.86l.51-2.37h14.44Z"/><path class="cls-3" d="M504.71,25.28h-5.33l7.09,19.47a3,3,0,0,1-3.13,3.31,7.23,7.23,0,0,1-2.48-.32l-.33,3.56a12.11,12.11,0,0,0,3.42.51c5,0,6.16-4,7.7-8.14l7-18.39h-4.89l-4.47,13.53h-.07ZM487.57,43.81h4.83V37c0-2.66,0-7.56,3.92-7.56a4.94,4.94,0,0,1,2.16.4V25a5.1,5.1,0,0,0-1.48-.15c-2.88,0-4.86,2.92-5.07,4.65h-.08V25.28h-4.28ZM469.32,34.1c0-2.78,1.51-5.51,4.64-5.51s4.68,2.66,4.68,5.51c0,3.09-1,6.4-4.68,6.4S469.32,37.16,469.32,34.1Zm-5,.57c0,5.33,3.56,9.58,9.68,9.58s9.72-4.25,9.72-9.58c0-6.12-4.21-9.83-9.72-9.83S464.28,28.55,464.28,34.67Zm-30.89,9.14h4.83v-9c0-2.42.39-6.23,3.59-6.23,2.78,0,2.78,2.45,2.78,4.17V43.81h4.82v-9c0-2.42.4-6.23,3.6-6.23,2.77,0,2.77,2.45,2.77,4.17V43.81h4.82V32.12c0-4.14-1.29-7.28-5.86-7.28a6.37,6.37,0,0,0-5.8,3.28c-1-2.3-2.88-3.28-5.47-3.28a6.55,6.55,0,0,0-5.51,3h-.07V25.28h-4.5Zm-5.08-5a12.57,12.57,0,0,1-6.15,1.87c-3,0-5.08-1.69-5.29-4.68h12.81c0-6.48-1.94-11.2-8.82-11.2-5.76,0-8.6,4.43-8.6,9.8,0,6.08,3.56,9.61,9.68,9.61a12.72,12.72,0,0,0,6.37-1.48Zm-11.44-6.12c.21-2.49,1.58-4.36,4.28-4.36s3.78,2,3.93,4.36Zm-35.5,11.08h4.83v-9c0-2.42.39-6.23,3.6-6.23,2.77,0,2.77,2.45,2.77,4.17V43.81h4.82v-9c0-2.42.4-6.23,3.6-6.23,2.77,0,2.77,2.45,2.77,4.17V43.81h4.83V32.12c0-4.14-1.3-7.28-5.87-7.28a6.37,6.37,0,0,0-5.8,3.28c-1-2.3-2.88-3.28-5.47-3.28a6.55,6.55,0,0,0-5.51,3h-.07V25.28h-4.5Z"/><path class="cls-3" d="M641,26a13,13,0,0,0-4.79-1c-3,0-6.91,1.52-6.91,5.4,0,4.65,6.26,5.12,6.26,8.25,0,2.08-2,2.84-3.85,2.84a11.29,11.29,0,0,1-4.21-1l-.65,2.91a13.42,13.42,0,0,0,5.36.87c2.88,0,7-1.44,7-5.87,0-5.11-6.26-5.26-6.26-8.39,0-1.83,1.94-2.23,3.42-2.23a9,9,0,0,1,3.67.94Zm-14,0a13,13,0,0,0-4.78-1c-3,0-6.92,1.52-6.92,5.4,0,4.65,6.27,5.12,6.27,8.25,0,2.08-2,2.84-3.85,2.84a11.29,11.29,0,0,1-4.21-1l-.65,2.91a13.35,13.35,0,0,0,5.36.87c2.88,0,7-1.44,7-5.87,0-5.11-6.27-5.26-6.27-8.39,0-1.83,2-2.23,3.42-2.23a9.08,9.08,0,0,1,3.68.94ZM609.14,40.39A13.84,13.84,0,0,1,604,41.51c-3.28,0-5.65-1.12-5.65-5a5.67,5.67,0,0,1,.11-1.15h12.92a19.53,19.53,0,0,0,.32-3.35c0-4.35-2.48-7-6.91-7-6.48,0-10,5.87-10,11,0,6.48,4,8.28,8.46,8.28a23.09,23.09,0,0,0,5.43-.76Zm-10.36-7.52c.72-2.7,2.84-5.11,5.61-5.11,2.56,0,3.89,1.55,3.89,3.71a10.72,10.72,0,0,1-.11,1.4ZM580.27,43.81h3.39l1.9-9c.47-2.27,2.52-6.8,6.7-6.8a4.52,4.52,0,0,1,1.44.36l.75-3a4.56,4.56,0,0,0-1.54-.33,7.06,7.06,0,0,0-6.27,3.35h-.07l.58-2.91H584c-.15,1.08-.36,2.05-.5,2.8ZM563,36.69c0-4.54,2.62-8.93,6.58-8.93,2.34,0,4.11,1.44,4.11,4.54,0,4.57-2.27,9.21-6.12,9.21C564.5,41.51,563,39.17,563,36.69Zm-6.59,14.68h3.38L562,41.08h.07c.87,2.09,2.77,3.17,6,3.17,6.12,0,9.25-5.51,9.25-12.24,0-4-2.41-7-6.55-7-2.56,0-5.19.94-6.52,3.24h-.07l.61-2.8h-3.17c-.25,2-.61,4-1,6.08ZM537.5,43.81h4.21l6.12-7.19L551,43.81h3.82l-4.47-9.53,7.82-8.82h-4.11l-5.51,6.62-2.73-6.62h-3.71L546,34.13Zm-2.37-3.42a13.93,13.93,0,0,1-5.19,1.12c-3.27,0-5.65-1.12-5.65-5a6.48,6.48,0,0,1,.11-1.15h12.92a19.51,19.51,0,0,0,.33-3.35c0-4.35-2.49-7-6.92-7-6.48,0-10,5.87-10,11,0,6.48,4,8.28,8.46,8.28a23.17,23.17,0,0,0,5.44-.76Zm-10.37-7.52c.72-2.7,2.84-5.11,5.62-5.11a3.51,3.51,0,0,1,3.88,3.71,9.22,9.22,0,0,1-.11,1.4Z"/></g></svg>