<svg xmlns="http://www.w3.org/2000/svg" viewBox="0 0 1020 240"><defs><style>.cls-1{fill:#50b948;}.cls-2{opacity:0.25;}.cls-3{fill:#fff;}.cls-4{fill:#f2f2f2;}</style></defs><title>TechZone-header</title><g id="TechZone"><rect class="cls-1" x="-9" y="-45" width="1038" height="306"/><g class="cls-2"><path class="cls-3" d="M940.61,176.19h0c-1,0-2,.1-3,.15L834.75,73.52A25.91,25.91,0,0,0,808,67.46l16.05-47c2.64-7.74,0-19.17-5.81-25L784.65-38.15c-5.8-5.8-17.22-8.47-25-5.83L739.54-37.1c-3.3,1.13-5.39,3-5.94,5.34s.49,4.92,3,7.39L758.23-2.8a19.71,19.71,0,0,1,0,27.77L735,48.18a19.69,19.69,0,0,1-27.79,0L685.64,26.56c-2.49-2.45-5.1-3.52-7.42-3s-4.17,2.65-5.3,5.94L666,49.69c-2.64,7.77,0,19.19,5.82,25l33.64,33.6c5.78,5.79,17.19,8.45,24.9,5.84L777.47,98a25.87,25.87,0,0,0,6,26.72L886.35,227.59c-.06,1-.15,2-.15,3a54.4,54.4,0,1,0,54.41-54.41Zm0,82.93a28.55,28.55,0,0,1-28.52-28.52,28.54,28.54,0,0,1,28.52-28.52,28.52,28.52,0,0,1,0,57Z"/></g><path class="cls-3" d="M364.47,60.62H397.1v9.6h-11v57.59H375.51V70.22h-11Z"/><path class="cls-3" d="M412.27,88.94h14.5v9.6h-14.5v19.67h18.24v9.6h-28.8V60.62h28.8v9.6H412.27Z"/><path class="cls-3" d="M467.66,102.76v8.93c0,10.75-5.37,16.89-15.74,16.89s-15.74-6.14-15.74-16.89V76.75c0-10.75,5.37-16.9,15.74-16.9s15.74,6.15,15.74,16.9v6.52h-10v-7.2c0-4.8-2.11-6.62-5.47-6.62s-5.47,1.82-5.47,6.62v36.29c0,4.8,2.11,6.53,5.47,6.53s5.47-1.73,5.47-6.53v-9.6Z"/><path class="cls-3" d="M484.65,127.81H474.1V60.62h10.55v28.8h12V60.62H507.4v67.19H496.65V99h-12Z"/><path class="cls-3" d="M544.75,127.81H514.51v-4l26-59.13H515.76v-4h29.37v4.13l-26,59h25.63Z"/><path class="cls-3" d="M552,77c0-9.79,4.52-17,14.69-17,10.37,0,14.88,7.2,14.88,17V111.4c0,9.79-4.51,17-14.88,17-10.17,0-14.69-7.2-14.69-17Zm4.42,34.66c0,7.29,2.88,12.67,10.27,12.67S577.2,119,577.2,111.69V76.75c0-7.3-3-12.67-10.47-12.67s-10.27,5.37-10.27,12.67Z"/><path class="cls-3" d="M592.94,127.81h-4V60.62h5.76l20.16,56.73V60.62h4v67.19H614l-21-59.89Z"/><path class="cls-3" d="M649.19,91.72v4H630.86v28h22.08v4h-26.5V60.62h26.5v4H630.86V91.72Z"/><path class="cls-4" d="M174.14,161.88h5.25L174.1,187h-5.25Z"/><path class="cls-4" d="M184.54,161.88h6.37L196.28,181h.07l4.1-19.07h4.75L199.77,187h-6.48L188,167.74H188L184,187h-4.83Z"/><path class="cls-4" d="M207.19,175.34h9.46l-.82,4h-9.47Z"/><path class="cls-4" d="M237,166.7a11.88,11.88,0,0,0-5.22-1.3c-1.8,0-4.21.72-4.21,2.88,0,4,8.56,3.78,8.56,10.76,0,6.16-4.82,8.39-10.33,8.39a21.24,21.24,0,0,1-7.16-1.4l1.29-4.28a15.09,15.09,0,0,0,6.16,1.72c2.41,0,4.79-1.22,4.79-3.92,0-4.54-8.57-3.82-8.57-10.51,0-5.29,4.53-7.6,9.36-7.6a17.44,17.44,0,0,1,6.51,1.12Z"/><path class="cls-4" d="M242.14,161.88h19.4l-.82,4h-7.09L249.05,187H243.8l4.57-21.17h-7.09Z"/><path class="cls-4" d="M285.52,172.1a16.75,16.75,0,0,1-4.21,11.12c-2.63,2.92-6.45,4.21-10.66,4.21-6.19,0-9.9-4.46-9.9-10.44a16.81,16.81,0,0,1,4-10.87A13.2,13.2,0,0,1,275,161.44C281.85,161.44,285.52,165.4,285.52,172.1ZM266,177.28c0,3.28,1.66,6.19,5.29,6.19,5.76,0,9-6.91,9-11.91,0-3.35-1.72-6.16-5.36-6.16C269,165.4,266,172.21,266,177.28Z"/><path class="cls-4" d="M292.29,161.88h5.94c4.64,0,10-.08,10,5.93,0,4.32-3.24,6.63-7.35,6.7v.07a2.7,2.7,0,0,1,2.56,2.31L305.86,187h-5.29l-1.23-5.9c-.57-2.67-.43-4.54-3.16-4.54h-1.91L292.07,187h-5Zm2.88,10.72H297c2.71,0,6-.83,6-4.14,0-2.63-2.27-2.63-4.32-2.63h-2.09Z"/><path class="cls-4" d="M314.68,161.88h14.8l-.76,4h-9.83L317.6,172h8.78l-.79,4h-8.82l-1.48,7h9.94l-.87,4h-15Z"/><path class="cls-4" d="M344.31,161.88h5.94c4.64,0,10-.08,10,5.93,0,4.32-3.24,6.63-7.35,6.7v.07a2.7,2.7,0,0,1,2.56,2.31L357.88,187h-5.29l-1.22-5.9c-.58-2.67-.44-4.54-3.17-4.54h-1.91L344.09,187h-5Zm2.88,10.72H349c2.69,0,6-.83,6-4.14,0-2.63-2.27-2.63-4.32-2.63h-2.09Z"/><path class="cls-4" d="M366.7,161.88h14.8l-.76,4h-9.83l-1.29,6.2h8.78l-.79,4h-8.82l-1.48,7h9.94l-.87,4h-15Z"/><path class="cls-4" d="M386.11,187h-5l5.32-25.12h4.25c4.64,0,11,.25,11,6.51,0,6.08-5,9.07-10.62,9.07h-2.92ZM389,173.5h1.81c2.77,0,5.61-1.44,5.61-4.57,0-2.55-2-3.1-4.21-3.1h-1.58Z"/><path class="cls-4" d="M412.71,161.88h5.58L422.86,187h-5l-.86-5.76H406.27L403.06,187h-5.58Zm-4.21,15.4h7.77l-1.58-10.94h-.15Z"/><path class="cls-4" d="M430.89,161.88h5.25L430.85,187H425.6Z"/><path class="cls-4" d="M441,161.88h5.94c4.65,0,10-.08,10,5.93,0,4.32-3.24,6.63-7.34,6.7v.07a2.68,2.68,0,0,1,2.55,2.31L454.58,187h-5.3l-1.22-5.9c-.58-2.67-.43-4.54-3.17-4.54H443L440.79,187h-5Zm2.88,10.72h1.84c2.7,0,6-.83,6-4.14,0-2.63-2.27-2.63-4.32-2.63h-2.09Z"/><path class="cls-4" d="M484.78,185.56a13.12,13.12,0,0,1-6.84,1.87c-4.43,0-8.75-2.05-8.75-7.13,0-4.17,3.24-6.69,6.91-7.81a6.89,6.89,0,0,1-1.76-4.68c0-4.31,3.71-6.37,7.52-6.37,3,0,6.95,1.77,6.95,5.73s-3.2,5.79-6.55,7l3.63,5.22a11.52,11.52,0,0,0,2.2-6h4.39a16.18,16.18,0,0,1-4.32,9.39l2.92,4.25h-5.4Zm-6.59-9.9c-2.09.79-4.17,1.84-4.17,4.39s2,3.64,4.39,3.64a7.39,7.39,0,0,0,4.25-1.26ZM482.12,165a2.9,2.9,0,0,0-3.17,3,6,6,0,0,0,1.33,3.17c1.84-.51,4.35-1.55,4.35-4C484.63,165.47,483.34,165,482.12,165Z"/><path class="cls-4" d="M506.85,161.88h5l.75,19.25h.08l8.35-19.25h6.76l.11,19.25H528l8.9-19.25h5.21l-12,25.12h-6.3l-.25-20.09h-.08L514.66,187h-6.23Z"/><path class="cls-4" d="M552.06,161.88h5.58L562.21,187h-5l-.86-5.76H545.62l-3.2,5.76h-5.58Zm-4.21,15.4h7.78L554,166.34h-.14Z"/><path class="cls-4" d="M570.35,161.88h5.94c4.64,0,10-.08,10,5.93,0,4.32-3.24,6.63-7.34,6.7v.07a2.69,2.69,0,0,1,2.55,2.31L583.92,187h-5.29l-1.22-5.9c-.58-2.67-.43-4.54-3.17-4.54h-1.91L570.14,187h-5Zm2.88,10.72h1.84c2.7,0,6-.83,6-4.14,0-2.63-2.26-2.63-4.32-2.63h-2.08Z"/><path class="cls-4" d="M592.35,161.88h5.94c4.64,0,10-.08,10,5.93,0,4.32-3.24,6.63-7.34,6.7v.07a2.7,2.7,0,0,1,2.56,2.31L605.92,187h-5.29l-1.23-5.9c-.57-2.67-.43-4.54-3.16-4.54h-1.91L592.13,187h-5Zm2.88,10.72h1.83c2.7,0,6-.83,6-4.14,0-2.63-2.27-2.63-4.32-2.63h-2.09Z"/><path class="cls-4" d="M622.05,161.88h5.58L632.2,187h-5l-.87-5.76H615.6L612.4,187h-5.58Zm-4.22,15.4h7.78L624,166.34h-.15Z"/><path class="cls-4" d="M640.62,161.88H647L652.36,181h.07l4.1-19.07h4.75L655.85,187h-6.48l-5.26-19.26H644l-4,19.26h-4.83Z"/><path class="cls-4" d="M664.2,161.88h19.4l-.82,4h-7.09L671.11,187h-5.25l4.57-21.17h-7.09Z"/><path class="cls-4" d="M690.09,176.6l-5.91-14.72h5.33l3.74,10.54,8.17-10.54h5.87L695.13,176.6l-2.2,10.4h-5Z"/><path class="cls-4" d="M733.07,166.7a11.88,11.88,0,0,0-5.22-1.3c-1.8,0-4.21.72-4.21,2.88,0,4,8.56,3.78,8.56,10.76,0,6.16-4.82,8.39-10.33,8.39a21.24,21.24,0,0,1-7.16-1.4l1.3-4.28a15,15,0,0,0,6.15,1.72c2.41,0,4.79-1.22,4.79-3.92,0-4.54-8.57-3.82-8.57-10.51,0-5.29,4.54-7.6,9.36-7.6a17.49,17.49,0,0,1,6.52,1.12Z"/><path class="cls-4" d="M740.77,161.88h14.8l-.76,4H745l-1.3,6.2h8.78l-.79,4h-8.82l-1.47,7h9.93l-.86,4h-15Z"/><path class="cls-4" d="M760.39,161.88h5.94c4.65,0,10-.08,10,5.93,0,4.32-3.24,6.63-7.34,6.7v.07a2.68,2.68,0,0,1,2.55,2.31L774,187h-5.29l-1.22-5.9c-.58-2.67-.43-4.54-3.17-4.54h-1.91L760.18,187h-5Zm2.88,10.72h1.84c2.7,0,6-.83,6-4.14,0-2.63-2.26-2.63-4.31-2.63h-2.09Z"/><path class="cls-4" d="M779.58,161.88h5L787,181.42H787l10.44-19.54h5.47l-14,25.12h-6Z"/><path class="cls-4" d="M805.65,161.88h5.25L805.61,187h-5.25Z"/><path class="cls-4" d="M832.75,166.88A10.19,10.19,0,0,0,827,165.4c-5.58,0-9.5,4.21-9.5,10.12,0,4.21,2.74,7.95,7.16,7.95a10,10,0,0,0,5.29-1.55l-.79,4.83a21.73,21.73,0,0,1-5.69.68c-7.59,0-11.23-5.11-11.23-11.91,0-8.1,5.51-14.08,14.4-14.08a20,20,0,0,1,7.38,1.23Z"/><path class="cls-4" d="M838.15,161.88H853l-.76,4h-9.82l-1.3,6.2h8.78l-.79,4h-8.82l-1.47,7h9.93l-.86,4h-15Z"/><path class="cls-4" d="M175.44,195.16h2.7l1,16.11h.05l7.51-16.11h3.56l.49,16.14h.05L199,195.16h2.89L192,214h-3.51l-.41-16.3h0l-7.5,16.3H177Z"/><path class="cls-4" d="M204.68,195.16h10.23l-.53,2.37h-7.46L205.71,203h7l-.46,2.38h-7.07l-1.38,6.21h7.91l-.51,2.37H200.55Z"/><path class="cls-4" d="M227.07,195.16H237l-.46,2.37h-7.21L228.09,203h6.64l-.51,2.38h-6.64L225.72,214H223Z"/><path class="cls-4" d="M240.51,195.16h2.73L239.19,214h-2.73Z"/><path class="cls-4" d="M246.43,195.16h2.91l3.73,7.21,6.31-7.21h3.43l-8.31,9.12,5,9.72h-3l-4-8.15L245.32,214H242L251,203.93Z"/><path class="cls-4" d="M262.49,211h3l-.63,3h-3Zm4.62-7.72h-3l.63-3h3Z"/><path class="cls-4" d="M281.07,195.16h2.72l-3.56,16.47h7.83l-.49,2.37H277Z"/><path class="cls-4" d="M293.38,200.61a14.23,14.23,0,0,1,3.83-.7c2.78,0,5.46,1.08,5.46,4.37a11.64,11.64,0,0,1-.25,2.16c-.51,2.57-1.08,5.13-1.43,7.56h-2.35l.46-2.29h-.05a5.07,5.07,0,0,1-4.48,2.61c-2.32,0-4.4-1.21-4.4-3.8,0-3.92,3.53-5,8.15-5,.54,0,1.21.05,1.83.08a4,4,0,0,0,.14-.89c0-2-1.3-2.73-3.16-2.73a8.74,8.74,0,0,0-4.21,1.16Zm4.29,6.78c-1.91,0-4.8.51-4.8,3,0,1.22,1.05,1.86,2.26,1.86,2.57,0,4.19-2.56,4.49-4.88Z"/><path class="cls-4" d="M307.2,204.8c.27-1.54.54-3.05.73-4.57h2.38l-.46,2.11h0a5.44,5.44,0,0,1,4.89-2.43c3.1,0,4.91,2.27,4.91,5.24,0,5-2.35,9.17-6.94,9.17-2.4,0-3.83-.81-4.48-2.37h0l-1.65,7.72h-2.53Zm5.21,7.47c2.89,0,4.59-3.48,4.59-6.91,0-2.32-1.32-3.4-3.08-3.4-3,0-4.93,3.29-4.93,6.7A3.33,3.33,0,0,0,312.41,212.27Z"/><path class="cls-4" d="M323,200.23h3.08l.67-3.18,2.73-1-.86,4.13h3.78l-.41,2.06h-3.81l-1.26,5.91a19.42,19.42,0,0,0-.41,2.59c0,1,.54,1.48,1.84,1.48a4.91,4.91,0,0,0,1.78-.35l-.38,2.11a9.18,9.18,0,0,1-2.48.29,3,3,0,0,1-3.3-3,20.17,20.17,0,0,1,.49-3.24l1.19-5.74h-3Z"/><path class="cls-4" d="M340.6,199.91c3.7,0,6.1,2.24,6.1,6,0,4.67-2.75,8.39-7.69,8.39-3.78,0-6.26-2-6.26-6.12C332.75,203.61,335.55,199.91,340.6,199.91ZM339,212.27c2.86,0,5-3.24,5-6.34,0-2.05-1.21-4-3.51-4-3.37,0-5,3.56-5,6.43C335.45,210.57,336.58,212.27,339,212.27Z"/><path class="cls-4" d="M350.7,204.8c.27-1.54.54-3.05.73-4.57h2.37l-.45,2.11h0a5.44,5.44,0,0,1,4.89-2.43c3.1,0,4.91,2.27,4.91,5.24,0,5-2.35,9.17-6.94,9.17-2.4,0-3.83-.81-4.48-2.37h0l-1.65,7.72h-2.54Zm5.21,7.47c2.89,0,4.59-3.48,4.59-6.91,0-2.32-1.32-3.4-3.08-3.4-3,0-4.94,3.29-4.94,6.7A3.34,3.34,0,0,0,355.91,212.27Z"/><path class="cls-4" d="M374.21,202.66a6.76,6.76,0,0,0-2.75-.7c-1.1,0-2.56.3-2.56,1.67,0,2.35,4.69,2.46,4.69,6.29,0,3.32-3,4.4-5.21,4.4a10.18,10.18,0,0,1-4-.64l.49-2.19a8.59,8.59,0,0,0,3.16.78c1.37,0,2.88-.56,2.88-2.13,0-2.35-4.69-2.7-4.69-6.18,0-2.92,2.91-4.05,5.18-4.05a9.67,9.67,0,0,1,3.59.76Z"/><path class="cls-4" d="M376.51,211h3.24L376,217.59h-2.54Z"/><path class="cls-4" d="M395.11,195.16h4.16c6.64,0,9.48,3.37,9.48,7.61,0,6.69-4.13,11.23-12,11.23h-5.61Zm-.75,16.47h2.86c5.34,0,8.66-3.46,8.66-8.56,0-3.24-1.48-5.54-7-5.54h-1.56Z"/><path class="cls-4" d="M421.17,213.76a17.52,17.52,0,0,1-4.08.56c-3.35,0-6.34-1.35-6.34-6.2,0-3.81,2.67-8.21,7.53-8.21,3.32,0,5.18,2,5.18,5.26a15.16,15.16,0,0,1-.24,2.51h-9.69a4.27,4.27,0,0,0-.08.87c0,2.89,1.78,3.72,4.23,3.72a10.53,10.53,0,0,0,3.89-.83Zm-.33-8a6.77,6.77,0,0,0,.08-1A2.63,2.63,0,0,0,418,202c-2.08,0-3.67,1.81-4.21,3.83Z"/><path class="cls-4" d="M434.24,202.66a6.85,6.85,0,0,0-2.76-.7c-1.1,0-2.56.3-2.56,1.67,0,2.35,4.7,2.46,4.7,6.29,0,3.32-3.06,4.4-5.21,4.4a10.2,10.2,0,0,1-4-.64l.49-2.19a8.59,8.59,0,0,0,3.16.78c1.37,0,2.89-.56,2.89-2.13,0-2.35-4.7-2.7-4.7-6.18,0-2.92,2.91-4.05,5.18-4.05a9.67,9.67,0,0,1,3.59.76Z"/><path class="cls-4" d="M440.23,193.76h2.54l-2.57,11.87h.06l6.4-5.4h3.72l-7.8,6.1,5.61,7.67H445l-5-7.07L438.48,214h-2.54Z"/><path class="cls-4" d="M452,200.23h3.08l.68-3.18,2.72-1-.86,4.13h3.78l-.41,2.06h-3.8l-1.27,5.91a19.42,19.42,0,0,0-.41,2.59c0,1,.54,1.48,1.84,1.48a4.91,4.91,0,0,0,1.78-.35l-.38,2.11a9.18,9.18,0,0,1-2.48.29,3,3,0,0,1-3.3-3,20.17,20.17,0,0,1,.49-3.24l1.19-5.74h-3Z"/><path class="cls-4" d="M469.63,199.91c3.7,0,6.1,2.24,6.1,6,0,4.67-2.75,8.39-7.69,8.39-3.78,0-6.26-2-6.26-6.12C461.78,203.61,464.58,199.91,469.63,199.91ZM468,212.27c2.86,0,5-3.24,5-6.34,0-2.05-1.21-4-3.51-4-3.37,0-5,3.56-5,6.43C464.48,210.57,465.61,212.27,468,212.27Z"/><path class="cls-4" d="M479.73,204.8c.27-1.54.54-3.05.73-4.57h2.38l-.46,2.11h.05a5.44,5.44,0,0,1,4.89-2.43c3.1,0,4.91,2.27,4.91,5.24,0,5-2.35,9.17-6.94,9.17-2.4,0-3.83-.81-4.48-2.37h-.05l-1.65,7.72h-2.54Zm5.21,7.47c2.89,0,4.59-3.48,4.59-6.91,0-2.32-1.32-3.4-3.08-3.4-3,0-4.94,3.29-4.94,6.7A3.34,3.34,0,0,0,484.94,212.27Z"/><path class="cls-4" d="M503.25,202.66a6.85,6.85,0,0,0-2.76-.7c-1.1,0-2.56.3-2.56,1.67,0,2.35,4.7,2.46,4.7,6.29,0,3.32-3.05,4.4-5.21,4.4a10.2,10.2,0,0,1-4-.64l.49-2.19a8.59,8.59,0,0,0,3.16.78c1.38,0,2.89-.56,2.89-2.13,0-2.35-4.7-2.7-4.7-6.18,0-2.92,2.91-4.05,5.18-4.05a9.67,9.67,0,0,1,3.59.76Z"/><path class="cls-4" d="M505.54,211h3.24L505,217.59h-2.54Z"/><path class="cls-4" d="M524.12,195.16h2.73l-3.57,16.47h7.83l-.49,2.37H520Z"/><path class="cls-4" d="M536.43,200.61a14.37,14.37,0,0,1,3.83-.7c2.78,0,5.46,1.08,5.46,4.37a11.64,11.64,0,0,1-.25,2.16C545,209,544.39,211.57,544,214H541.7l.45-2.29h0a5,5,0,0,1-4.48,2.61c-2.32,0-4.4-1.21-4.4-3.8,0-3.92,3.54-5,8.15-5,.54,0,1.22.05,1.84.08a4.76,4.76,0,0,0,.13-.89c0-2-1.29-2.73-3.16-2.73a8.77,8.77,0,0,0-4.21,1.16Zm4.29,6.78c-1.91,0-4.8.51-4.8,3,0,1.22,1.05,1.86,2.27,1.86,2.56,0,4.18-2.56,4.48-4.88Z"/><path class="cls-4" d="M550.26,204.8c.27-1.54.54-3.05.72-4.57h2.38l-.46,2.11H553a5.41,5.41,0,0,1,4.88-2.43c3.1,0,4.91,2.27,4.91,5.24,0,5-2.34,9.17-6.93,9.17-2.41,0-3.84-.81-4.49-2.37h-.05l-1.65,7.72H547.1Zm5.2,7.47c2.89,0,4.59-3.48,4.59-6.91,0-2.32-1.32-3.4-3.07-3.4-3,0-4.94,3.29-4.94,6.7A3.33,3.33,0,0,0,555.46,212.27Z"/><path class="cls-4" d="M566,200.23h3.08l.68-3.18,2.72-1-.86,4.13h3.78l-.41,2.06h-3.8l-1.27,5.91a19.42,19.42,0,0,0-.41,2.59c0,1,.54,1.48,1.84,1.48a4.91,4.91,0,0,0,1.78-.35l-.38,2.11a9.13,9.13,0,0,1-2.48.29,3,3,0,0,1-3.29-3,20.19,20.19,0,0,1,.48-3.24l1.19-5.74h-3Z"/><path class="cls-4" d="M583.65,199.91c3.7,0,6.1,2.24,6.1,6,0,4.67-2.75,8.39-7.69,8.39-3.78,0-6.26-2-6.26-6.12C575.8,203.61,578.6,199.91,583.65,199.91ZM582,212.27c2.86,0,5-3.24,5-6.34,0-2.05-1.21-4-3.51-4-3.37,0-5,3.56-5,6.43C578.5,210.57,579.63,212.27,582,212.27Z"/><path class="cls-4" d="M593.75,204.8c.27-1.54.54-3.05.73-4.57h2.38l-.46,2.11h.05a5.44,5.44,0,0,1,4.89-2.43c3.1,0,4.91,2.27,4.91,5.24,0,5-2.35,9.17-6.94,9.17-2.4,0-3.83-.81-4.48-2.37h-.05l-1.65,7.72h-2.54Zm5.21,7.47c2.89,0,4.59-3.48,4.59-6.91,0-2.32-1.32-3.4-3.08-3.4-3,0-4.94,3.29-4.94,6.7A3.34,3.34,0,0,0,599,212.27Z"/><path class="cls-4" d="M620.16,195.16h4.15c6.64,0,9.48,3.37,9.48,7.61,0,6.69-4.13,11.23-12,11.23h-5.62Zm-.76,16.47h2.86c5.35,0,8.67-3.46,8.67-8.56,0-3.24-1.49-5.54-7-5.54H622.4Z"/><path class="cls-4" d="M638.54,200.23h2.54L638.17,214h-2.54Zm3.38-3.07h-2.86l.59-2.87h2.86Z"/><path class="cls-4" d="M651.77,202.66A6.8,6.8,0,0,0,649,202c-1.11,0-2.56.3-2.56,1.67,0,2.35,4.69,2.46,4.69,6.29,0,3.32-3,4.4-5.21,4.4a10.18,10.18,0,0,1-4-.64l.49-2.19a8.59,8.59,0,0,0,3.15.78c1.38,0,2.89-.56,2.89-2.13,0-2.35-4.69-2.7-4.69-6.18,0-2.92,2.91-4.05,5.18-4.05a9.75,9.75,0,0,1,3.59.76Z"/><path class="cls-4" d="M655.26,204.8c.27-1.54.54-3.05.73-4.57h2.37l-.46,2.11H658a5.41,5.41,0,0,1,4.88-2.43c3.11,0,4.91,2.27,4.91,5.24,0,5-2.34,9.17-6.93,9.17-2.4,0-3.84-.81-4.48-2.37h-.06l-1.64,7.72H652.1Zm5.21,7.47c2.88,0,4.58-3.48,4.58-6.91,0-2.32-1.32-3.4-3.07-3.4-3,0-4.94,3.29-4.94,6.7A3.34,3.34,0,0,0,660.47,212.27Z"/><path class="cls-4" d="M674.43,193.76H677L672.67,214h-2.54Z"/><path class="cls-4" d="M680.45,200.61a14.23,14.23,0,0,1,3.83-.7c2.78,0,5.45,1.08,5.45,4.37a11.61,11.61,0,0,1-.24,2.16c-.51,2.57-1.08,5.13-1.43,7.56h-2.35l.46-2.29h0a5.08,5.08,0,0,1-4.49,2.61c-2.32,0-4.39-1.21-4.39-3.8,0-3.92,3.53-5,8.15-5,.54,0,1.21.05,1.83.08a4,4,0,0,0,.14-.89c0-2-1.3-2.73-3.16-2.73a8.7,8.7,0,0,0-4.21,1.16Zm4.29,6.78c-1.92,0-4.81.51-4.81,3,0,1.22,1.06,1.86,2.27,1.86,2.57,0,4.19-2.56,4.48-4.88Z"/><path class="cls-4" d="M691,217.7a2.58,2.58,0,0,0,1.11.24c1.54,0,2.59-1.05,3.64-3.18l-2.21-14.53h2.64l1.6,11h0l6-11h2.73l-9.39,16.36c-1.22,2.11-2.14,3.4-4.67,3.4a9.12,9.12,0,0,1-1.92-.19Z"/><path class="cls-4" d="M714.79,202.66A6.8,6.8,0,0,0,712,202c-1.11,0-2.57.3-2.57,1.67,0,2.35,4.7,2.46,4.7,6.29,0,3.32-3,4.4-5.21,4.4a10.11,10.11,0,0,1-4-.64l.48-2.19a8.64,8.64,0,0,0,3.16.78c1.38,0,2.89-.56,2.89-2.13,0-2.35-4.7-2.7-4.7-6.18,0-2.92,2.92-4.05,5.19-4.05a9.75,9.75,0,0,1,3.59.76Z"/><path class="cls-4" d="M717.09,211h3.24l-3.76,6.61H714Z"/><path class="cls-4" d="M744.35,208.87a10.49,10.49,0,0,0,2.27-5.07H749a11.86,11.86,0,0,1-3.34,7l2.05,3.16h-3l-.92-1.43a8.1,8.1,0,0,1-5,1.75c-4,0-6.43-1.89-6.43-5.29,0-3.15,2.65-5,5.4-5.64a6.46,6.46,0,0,1-1.46-4.07c0-2.78,2.76-4.49,5.24-4.49s5.07,1.19,5.07,4.16c0,3.16-2.75,4.46-5.31,5.43ZM739,205.2c-1.78.46-3.86,1.46-3.86,3.7a3.36,3.36,0,0,0,3.59,3.37,6.07,6.07,0,0,0,3.86-1.56Zm5.32-6c0-1.62-1.19-2.29-2.59-2.29a2.66,2.66,0,0,0-2.81,2.72,5.27,5.27,0,0,0,1.27,3C741.76,202.23,744.3,201.18,744.3,199.18Z"/><path class="cls-4" d="M763,195.16h4l2.57,15.41,9.17-15.41h4.43l-4,18.84h-2.7L780,197.86h-.05L770.22,214H767.6L765,197.86h-.05L761.31,214h-2.62Z"/><path class="cls-4" d="M792.17,199.91c3.7,0,6.1,2.24,6.1,6,0,4.67-2.75,8.39-7.69,8.39-3.78,0-6.26-2-6.26-6.12C784.32,203.61,787.12,199.91,792.17,199.91Zm-1.62,12.36c2.86,0,5-3.24,5-6.34,0-2.05-1.21-4-3.51-4-3.37,0-5,3.56-5,6.43C787,210.57,788.15,212.27,790.55,212.27Z"/><path class="cls-4" d="M802.89,202.34c.11-.57.27-1.3.38-2.11h2.37l-.43,2.19h.06a5.28,5.28,0,0,1,4.69-2.51,3.29,3.29,0,0,1,1.16.24l-.56,2.24a3.53,3.53,0,0,0-1.08-.27c-3.13,0-4.67,3.4-5,5.1L803,214h-2.54Z"/><path class="cls-4" d="M821.73,213.76a17.36,17.36,0,0,1-4.07.56c-3.35,0-6.34-1.35-6.34-6.2,0-3.81,2.67-8.21,7.53-8.21,3.32,0,5.18,2,5.18,5.26a15.16,15.16,0,0,1-.24,2.51H814.1a4.28,4.28,0,0,0-.09.87c0,2.89,1.79,3.72,4.24,3.72a10.53,10.53,0,0,0,3.89-.83Zm-.32-8a8.28,8.28,0,0,0,.08-1,2.63,2.63,0,0,0-2.91-2.78c-2.08,0-3.67,1.81-4.21,3.83Z"/><path class="cls-4" d="M826.6,211h3l-.62,3h-3Z"/><path class="cls-4" d="M834.1,211h3l-.62,3h-3Z"/><path class="cls-4" d="M841.61,211h3l-.62,3h-3Z"/><path class="cls-3" d="M504.71,25.28h-5.33l7.09,19.47a3,3,0,0,1-3.13,3.31,7.23,7.23,0,0,1-2.48-.32l-.33,3.56a12.11,12.11,0,0,0,3.42.51c5,0,6.16-4,7.7-8.14l7-18.39h-4.89l-4.47,13.53h-.07ZM487.57,43.81h4.83V37c0-2.66,0-7.56,3.92-7.56a4.94,4.94,0,0,1,2.16.4V25a5.1,5.1,0,0,0-1.48-.15c-2.88,0-4.86,2.92-5.07,4.65h-.08V25.28h-4.28ZM469.32,34.1c0-2.78,1.51-5.51,4.64-5.51s4.68,2.66,4.68,5.51c0,3.09-1,6.4-4.68,6.4S469.32,37.16,469.32,34.1Zm-5,.57c0,5.33,3.56,9.58,9.68,9.58s9.72-4.25,9.72-9.58c0-6.12-4.21-9.83-9.72-9.83S464.28,28.55,464.28,34.67Zm-30.89,9.14h4.83v-9c0-2.42.39-6.23,3.59-6.23,2.78,0,2.78,2.45,2.78,4.17V43.81h4.82v-9c0-2.42.4-6.23,3.6-6.23,2.77,0,2.77,2.45,2.77,4.17V43.81h4.82V32.12c0-4.14-1.29-7.28-5.86-7.28a6.37,6.37,0,0,0-5.8,3.28c-1-2.3-2.88-3.28-5.47-3.28a6.55,6.55,0,0,0-5.51,3h-.07V25.28h-4.5Zm-5.08-5a12.57,12.57,0,0,1-6.15,1.87c-3,0-5.08-1.69-5.29-4.68h12.81c0-6.48-1.94-11.2-8.82-11.2-5.76,0-8.6,4.43-8.6,9.8,0,6.08,3.56,9.61,9.68,9.61a12.72,12.72,0,0,0,6.37-1.48Zm-11.44-6.12c.21-2.49,1.58-4.36,4.28-4.36s3.78,2,3.93,4.36Zm-35.5,11.08h4.83v-9c0-2.42.39-6.23,3.6-6.23,2.77,0,2.77,2.45,2.77,4.17V43.81h4.82v-9c0-2.42.4-6.23,3.6-6.23,2.77,0,2.77,2.45,2.77,4.17V43.81h4.83V32.12c0-4.14-1.3-7.28-5.87-7.28a6.37,6.37,0,0,0-5.8,3.28c-1-2.3-2.88-3.28-5.47-3.28a6.55,6.55,0,0,0-5.51,3h-.07V25.28h-4.5Z"/><path class="cls-3" d="M641,26a13,13,0,0,0-4.79-1c-3,0-6.91,1.52-6.91,5.4,0,4.65,6.26,5.12,6.26,8.25,0,2.08-2,2.84-3.85,2.84a11.29,11.29,0,0,1-4.21-1l-.65,2.91a13.42,13.42,0,0,0,5.36.87c2.88,0,7-1.44,7-5.87,0-5.11-6.26-5.26-6.26-8.39,0-1.83,1.94-2.23,3.42-2.23a9,9,0,0,1,3.67.94Zm-14,0a13,13,0,0,0-4.78-1c-3,0-6.92,1.52-6.92,5.4,0,4.65,6.27,5.12,6.27,8.25,0,2.08-2,2.84-3.85,2.84a11.29,11.29,0,0,1-4.21-1l-.65,2.91a13.35,13.35,0,0,0,5.36.87c2.88,0,7-1.44,7-5.87,0-5.11-6.27-5.26-6.27-8.39,0-1.83,2-2.23,3.42-2.23a9.08,9.08,0,0,1,3.68.94ZM609.14,40.39A13.84,13.84,0,0,1,604,41.51c-3.28,0-5.65-1.12-5.65-5a5.67,5.67,0,0,1,.11-1.15h12.92a19.53,19.53,0,0,0,.32-3.35c0-4.35-2.48-7-6.91-7-6.48,0-10,5.87-10,11,0,6.48,4,8.28,8.46,8.28a23.09,23.09,0,0,0,5.43-.76Zm-10.36-7.52c.72-2.7,2.84-5.11,5.61-5.11,2.56,0,3.89,1.55,3.89,3.71a10.72,10.72,0,0,1-.11,1.4ZM580.27,43.81h3.39l1.9-9c.47-2.27,2.52-6.8,6.7-6.8a4.52,4.52,0,0,1,1.44.36l.75-3a4.56,4.56,0,0,0-1.54-.33,7.06,7.06,0,0,0-6.27,3.35h-.07l.58-2.91H584c-.15,1.08-.36,2.05-.5,2.8ZM563,36.69c0-4.54,2.62-8.93,6.58-8.93,2.34,0,4.11,1.44,4.11,4.54,0,4.57-2.27,9.21-6.12,9.21C564.5,41.51,563,39.17,563,36.69Zm-6.59,14.68h3.38L562,41.08h.07c.87,2.09,2.77,3.17,6,3.17,6.12,0,9.25-5.51,9.25-12.24,0-4-2.41-7-6.55-7-2.56,0-5.19.94-6.52,3.24h-.07l.61-2.8h-3.17c-.25,2-.61,4-1,6.08ZM537.5,43.81h4.21l6.12-7.19L551,43.81h3.82l-4.47-9.53,7.82-8.82h-4.11l-5.51,6.62-2.73-6.62h-3.71L546,34.13Zm-2.37-3.42a13.93,13.93,0,0,1-5.19,1.12c-3.27,0-5.65-1.12-5.65-5a6.48,6.48,0,0,1,.11-1.15h12.92a19.51,19.51,0,0,0,.33-3.35c0-4.35-2.49-7-6.92-7-6.48,0-10,5.87-10,11,0,6.48,4,8.28,8.46,8.28a23.17,23.17,0,0,0,5.44-.76Zm-10.37-7.52c.72-2.7,2.84-5.11,5.62-5.11a3.51,3.51,0,0,1,3.88,3.71,9.22,9.22,0,0,1-.11,1.4Z"/></g></svg>